<?xml version="1.0" encoding="utf-8"?>
<!-- Generator: Adobe Illustrator 16.0.0, SVG Export Plug-In . SVG Version: 6.00 Build 0)  -->
<!DOCTYPE svg PUBLIC "-//W3C//DTD SVG 1.1//EN" "http://www.w3.org/Graphics/SVG/1.1/DTD/svg11.dtd">
<svg version="1.1" id="Capa_1" xmlns="http://www.w3.org/2000/svg" xmlns:xlink="http://www.w3.org/1999/xlink" x="0px" y="0px"
	 width="1920px" height="1920px" viewBox="0 0 1920 1920" enable-background="new 0 0 1920 1920" xml:space="preserve">
<g>
	<g>
		<path fill="#FBFBFB" d="M977.32,1567.347c-9.526,5.5-25.114,5.5-34.641,0l-499.998-288.675c-9.526-5.5-17.32-19-17.32-30V671.326
			c0-11,7.794-24.5,17.32-30L942.68,352.651c9.526-5.5,25.114-5.5,34.641,0l499.999,288.675c9.526,5.5,17.32,19,17.32,30v577.346
			c0,11-7.794,24.5-17.32,30L977.32,1567.347z"/>
	</g>
	<g>
		<path fill="none" stroke="#FBFBFB" stroke-width="20" stroke-miterlimit="10" d="M977.32,1662.538c-9.526,5.5-25.114,5.5-34.641,0
			l-582.436-336.27c-9.526-5.5-17.32-19-17.32-30V623.731c0-11,7.794-24.5,17.32-30l582.436-336.27c9.526-5.5,25.114-5.5,34.641,0
			l582.437,336.271c9.526,5.5,17.32,19,17.32,30v672.536c0,11-7.794,24.5-17.32,30L977.32,1662.538z"/>
	</g>
	<g>
		<path fill="#1C232C" d="M1204.499,1265.821v65.125l-141.938,81.946c-33.955,19.604-61.785,7.841-61.785-26.112v-351.229
			l64.567-37.278v347.888L1204.499,1265.821z"/>
		<path fill="#1C232C" d="M1314.706,919.429v62.342l69.578-40.172v65.125l-69.578,40.17v220.424l-64.566,37.277V953.367
			c0-33.955,27.274-77.531,61.784-97.457l141.938-81.948v65.125L1314.706,919.429z"/>
	</g>
</g>
</svg>
